# xmcd
#
# Track frame offsets: 
#        150
#        25324
#        43324
#        71979
#        93591
#        112936
#        137765
#        155908
#        180821
#        202013
#
# Disc length: 2971 seconds
#
# Revision: 0
# Processed by: cddbd v1.5.2PL0 Copyright (c) Steve Scherf et al.
# Submitted via: ExactAudioCopy v1.0b3
#
DISCID=900b990a
DTITLE=Thanh Tuyen - Con Duong Xua Em Di #3
DYEAR=2002
DGENRE=
TTITLE0=Thoi
TTITLE1=Phut giao thua
TTITLE2=Hoa no ve dem
TTITLE3=Chuyen tinh nguoi dan ao
TTITLE4=Co hang xom
TTITLE5=Do chieu
TTITLE6=Chieu cuoi tuan
TTITLE7=Mua le
TTITLE8=Suong lanh chieu dong
TTITLE9=Vung la me bay
EXTD=
EXTT0=
EXTT1=
EXTT2=
EXTT3=
EXTT4=
EXTT5=
EXTT6=
EXTT7=
EXTT8=
EXTT9=
PLAYORDER=
